<?xml version="1.0" standalone="no"?>
<!DOCTYPE svg PUBLIC "-//W3C//DTD SVG 20010904//EN"
 "http://www.w3.org/TR/2001/REC-SVG-20010904/DTD/svg10.dtd">
<svg version="1.0" xmlns="http://www.w3.org/2000/svg"
 width="225.000000pt" height="225.000000pt" viewBox="0 0 225.000000 225.000000"
 preserveAspectRatio="xMidYMid meet">

<g transform="translate(0.000000,225.000000) scale(0.100000,-0.100000)"
fill="#000000" stroke="none">
<path d="M630 1410 l0 -490 70 0 70 0 0 420 0 420 495 0 495 0 0 -577 c0 -531
-1 -581 -18 -612 -37 -74 -120 -100 -189 -61 -65 36 -73 60 -73 204 l0 126
-566 0 -566 0 4 -137 c3 -112 8 -146 25 -183 26 -58 85 -117 142 -144 45 -21
57 -21 606 -21 549 0 561 0 605 21 57 27 117 87 144 144 21 44 21 57 24 713
l3 667 -636 0 -635 0 0 -490z m710 -769 c0 -32 7 -78 15 -101 8 -23 15 -44 15
-46 0 -2 -172 -4 -382 -4 -345 0 -386 2 -417 18 -52 26 -74 63 -79 132 l-4 60
426 0 426 0 0 -59z"/>
<path d="M920 1410 l0 -70 65 0 65 0 0 70 0 70 -65 0 -65 0 0 -70z"/>
<path d="M1200 1410 l0 -70 210 0 211 0 -3 68 -3 67 -207 3 -208 2 0 -70z"/>
<path d="M920 1125 l0 -65 65 0 65 0 0 65 0 65 -65 0 -65 0 0 -65z"/>
<path d="M1200 1125 l0 -65 210 0 210 0 0 65 0 65 -210 0 -210 0 0 -65z"/>
</g>
</svg>
